<?xml version="1.0" encoding="UTF-8"?>
<svg xmlns="http://www.w3.org/2000/svg" xmlns:xlink="http://www.w3.org/1999/xlink" version="1.1" x="0px" y="0px" viewBox="0 0 100 125" enable-background="new 0 0 100 100" xml:space="preserve" >
  <path fill='red' d="M71.383,38.005l-9.389-9.389L50,40.611L38.005,28.617l-9.389,9.389L40.611,50L28.616,61.994l9.389,9.39L50,59.389  l11.995,11.995l9.389-9.39L59.389,50L71.383,38.005z M84.302,15.698c-18.913-18.913-49.689-18.914-68.604,0  c-18.914,18.914-18.914,49.688,0,68.604c18.915,18.914,49.688,18.913,68.604,0C103.216,65.387,103.216,34.613,84.302,15.698z   M74.402,74.402c-13.455,13.455-35.349,13.457-48.806,0c-13.456-13.457-13.455-35.351,0-48.805  c13.455-13.455,35.351-13.456,48.806,0C87.859,39.052,87.857,60.947,74.402,74.402z" />
</svg>